<mxfile host="app.diagrams.net" modified="2021-05-06T17:27:58.957Z" agent="5.0 (Windows NT 6.1; WOW64) AppleWebKit/537.36 (KHTML, like Gecko) Chrome/89.0.4389.128 Safari/537.36 OPR/75.0.3969.243" etag="l6qGEft83aumWstpLWTU" version="14.3.2" type="github">
  <diagram id="36bmrS2wfTwrZFWJOLqV" name="Page-1">
    <mxGraphModel dx="1382" dy="757" grid="1" gridSize="10" guides="1" tooltips="1" connect="1" arrows="1" fold="1" page="1" pageScale="1" pageWidth="827" pageHeight="1169" math="0" shadow="0">
      <root>
        <mxCell id="0" />
        <mxCell id="1" parent="0" />
      </root>
    </mxGraphModel>
  </diagram>
</mxfile>
